<?xml version="1.0" encoding="UTF-8" standalone="no"?>
<svg width="63px" height="56px" viewBox="0 0 63 56" version="1.1" xmlns="http://www.w3.org/2000/svg" xmlns:xlink="http://www.w3.org/1999/xlink" xmlns:sketch="http://www.bohemiancoding.com/sketch/ns">
    <!-- Generator: Sketch 3.3.2 (12043) - http://www.bohemiancoding.com/sketch -->
    <title>Untitled</title>
    <desc>Created with Sketch.</desc>
    <defs></defs>
    <g id="Page-1" stroke="none" stroke-width="1" fill="none" fill-rule="evenodd" sketch:type="MSPage">
        <ellipse id="Oval-10-Copy-2" stroke="#000000" stroke-width="3" sketch:type="MSShapeGroup" cx="31.7306355" cy="27.8236733" rx="21.6987355" ry="20.5303016"></ellipse>
        <g id="Rectangle-9-Copy-2-+-Rectangle-9-Copy-3-+-Rectangle-9-Copy-4-+-Rectangle-9-Copy-5-Mask-Copy-Copy" sketch:type="MSLayerGroup" transform="translate(26.799287, 27.538282)" fill="#000000">
            <path d="M8.45047322,0.119440254 C9.5481386,1.5631669 10.1598785,3.67012365 10.1598785,5.62074967 C10.1598785,9.02507979 7.66430041,12.9055774 5.23879797,12.9055774 C2.81329553,12.9055774 0.131524772,9.02507992 0.131524772,5.62074979 C0.131524772,3.63160899 0.831227338,1.47990302 2.02293362,0.0347038852 C2.63596746,1.08526101 3.85658327,1.80141087 5.2623104,1.80141087 C6.62991034,1.80141087 7.82230424,1.12358209 8.45047322,0.119440254 Z" id="Mask" sketch:type="MSShapeGroup"></path>
        </g>
        <path d="M26.847974,31.3362067 C29.4158302,28.8326562 31.4630744,25.1560438 31.674556,24.3996756 C32.426708,21.7095887 28.5753522,24.150369 25.6327482,25.9184638 C22.6901442,27.6865587 19.8731816,29.3689022 20.9584926,31.1751629 C22.0438035,32.9814237 24.6411763,33.4877406 26.847974,31.3362067 Z" id="Oval-7-Copy-8" fill="#000000" sketch:type="MSShapeGroup"></path>
        <path d="M37.0982774,31.1653688 C34.5304212,28.6618182 32.483177,24.9852058 32.2716954,24.2288376 C31.5195434,21.5387508 35.3708991,23.979531 38.3135031,25.7476259 C41.2561071,27.5157207 44.0730697,29.1980642 42.9877588,31.004325 C41.9024478,32.8105857 39.3050751,33.3169026 37.0982774,31.1653688 Z" id="Oval-7-Copy-9" fill="#000000" sketch:type="MSShapeGroup"></path>
        <path d="M22.0749416,29.3465984 C26.298004,28.1933963 30.6594581,25.4797207 31.3328504,24.7973618 C33.7278265,22.3704953 28.171625,22.6971208 23.9837106,22.843366 C19.7957963,22.9896112 15.7927656,23.1186601 15.8825354,25.6893306 C15.9723052,28.2600011 18.4456713,30.3376522 22.0749416,29.3465984 Z" id="Oval-7-Copy-10" fill="#000000" sketch:type="MSShapeGroup"></path>
        <path d="M42.0474293,29.3590538 C37.824367,28.2058518 33.4629128,25.4921762 32.7895206,24.8098173 C30.3945445,22.3829507 35.9507459,22.7095763 40.1386603,22.8558215 C44.3265747,23.0020667 48.3296054,23.1311156 48.2398356,25.701786 C48.1500658,28.2724565 45.6766997,30.3501076 42.0474293,29.3590538 Z" id="Oval-7-Copy-11" fill="#000000" sketch:type="MSShapeGroup"></path>
        <ellipse id="Oval-9-Copy-2" fill="#000000" sketch:type="MSShapeGroup" cx="31.8393526" cy="22.3826144" rx="2.75051118" ry="2.34294796"></ellipse>
        <ellipse id="Oval-6-Copy-4" fill="#000000" sketch:type="MSShapeGroup" cx="31.8536965" cy="25.9883577" rx="3.8215726" ry="3.6157885"></ellipse>
    </g>
</svg>