<?xml version="1.0" encoding="UTF-8" standalone="no"?>
<!-- Created with Inkscape (http://www.inkscape.org/) -->
<svg
   xmlns:dc="http://purl.org/dc/elements/1.1/"
   xmlns:cc="http://creativecommons.org/ns#"
   xmlns:rdf="http://www.w3.org/1999/02/22-rdf-syntax-ns#"
   xmlns:svg="http://www.w3.org/2000/svg"
   xmlns="http://www.w3.org/2000/svg"
   xmlns:sodipodi="http://sodipodi.sourceforge.net/DTD/sodipodi-0.dtd"
   xmlns:inkscape="http://www.inkscape.org/namespaces/inkscape"
   width="390.71643"
   height="334.98782"
   id="svg2"
   sodipodi:version="0.32"
   inkscape:version="0.46"
   version="1.0"
   sodipodi:docname="honey bee.svg"
   inkscape:output_extension="org.inkscape.output.svg.inkscape">
  <defs
     id="defs4">
    <inkscape:perspective
       sodipodi:type="inkscape:persp3d"
       inkscape:vp_x="0 : 526.18109 : 1"
       inkscape:vp_y="0 : 1000 : 0"
       inkscape:vp_z="744.09448 : 526.18109 : 1"
       inkscape:persp3d-origin="372.04724 : 350.78739 : 1"
       id="perspective10" />
  </defs>
  <sodipodi:namedview
     id="base"
     pagecolor="#ffffff"
     bordercolor="#666666"
     borderopacity="1.0"
     inkscape:pageopacity="0.0"
     inkscape:pageshadow="2"
     inkscape:zoom="0.66962762"
     inkscape:cx="-151.7825"
     inkscape:cy="317.915"
     inkscape:document-units="px"
     inkscape:current-layer="layer1"
     showgrid="false"
     showguides="true"
     inkscape:guide-bbox="true"
     inkscape:window-width="1280"
     inkscape:window-height="719"
     inkscape:window-x="0"
     inkscape:window-y="22" />
  <metadata
     id="metadata7">
    <rdf:RDF>
      <cc:Work
         rdf:about="">
        <dc:format>image/svg+xml</dc:format>
        <dc:type
           rdf:resource="http://purl.org/dc/dcmitype/StillImage" />
      </cc:Work>
    </rdf:RDF>
  </metadata>
  <g
     inkscape:label="Camada 1"
     inkscape:groupmode="layer"
     id="layer1"
     transform="translate(-147.29507,-470.14295)">
    <g
       id="g5171">
      <g
         transform="translate(617.02589,790.34002)"
         id="g4368">
        <path
           style="opacity:0.5;fill:#e6e6e6;fill-opacity:1;fill-rule:evenodd;stroke:#c8c8c8;stroke-width:5;stroke-linecap:butt;stroke-linejoin:miter;marker:none;marker-start:none;marker-mid:none;marker-end:none;stroke-miterlimit:4;stroke-dasharray:none;stroke-dashoffset:0;stroke-opacity:1;visibility:visible;display:inline;overflow:visible;enable-background:accumulate"
           d="M -206.16418,-81.285048 C -170.74253,-21.455891 -76.495949,-40.713924 -81.723393,-111.33881 C -87.301612,-186.70286 -171.47675,-212.68716 -224.25504,-160.30108 C -230.9017,-152.26093 -226.50516,-152.55032 -227.39933,-148.6344"
           id="path4370"
           sodipodi:nodetypes="cscc" />
        <path
           style="opacity:0.5;fill:#e6e6e6;fill-opacity:1;fill-rule:evenodd;stroke:#c8c8c8;stroke-width:5;stroke-linecap:butt;stroke-linejoin:miter;marker:none;marker-start:none;marker-mid:none;marker-end:none;stroke-miterlimit:4;stroke-dasharray:none;stroke-dashoffset:0;stroke-opacity:1;visibility:visible;display:inline;overflow:visible;enable-background:accumulate"
           d="M -342.58103,-81.285047 C -378.00268,-21.455889 -472.24927,-40.713924 -467.02182,-111.33881 C -461.4436,-186.70286 -377.26846,-212.68716 -324.49017,-160.30108 C -317.84351,-152.26093 -322.24005,-152.55032 -321.34588,-148.63439"
           id="path4372"
           sodipodi:nodetypes="cscc" />
        <path
           id="path4374"
           style="fill:#ffff00;fill-opacity:1;stroke:#000000;stroke-width:10;stroke-miterlimit:4;stroke-dashoffset:0;stroke-opacity:1"
           d="M -246.05475,-28.213531 C -237.44919,-31.926603 -229.97608,-38.123531 -223.57644,-45.363531 C -217.1768,-52.603531 -211.99697,-61.223531 -208.41706,-70.793531 C -204.83715,-80.36353 -202.85715,-90.88353 -202.85715,-101.92353 C -202.85715,-146.08353 -234.53716,-181.92353 -273.57144,-181.92353 C -312.60573,-181.92353 -344.28573,-146.08353 -344.28573,-101.92353 C -344.28573,-90.88353 -342.30573,-80.36353 -338.72582,-70.793531 C -335.14591,-61.223531 -329.96609,-52.603531 -323.56644,-45.363531 C -317.1668,-38.123531 -309.95555,-30.961726 -301.08814,-28.213531 C -291.79991,-25.334916 -284.64654,-20.719139 -278.57145,-11.637818 C -275.47622,-5.6854367 -275.01457,2.6478966 -273.586,9.790754 C -271.68124,2.1717058 -271.90478,-5.9235304 -268.57145,-11.637818 C -261.29631,-23.375177 -255.90064,-23.965292 -246.05475,-28.213531 z"
           sodipodi:nodetypes="csssssssscccs" />
        <path
           id="path4376"
           sodipodi:type="arc"
           style="opacity:1;fill:#ffff00;fill-opacity:1;stroke:#000000;stroke-width:10;stroke-miterlimit:4;stroke-dasharray:none;stroke-dashoffset:0;stroke-opacity:1"
           sodipodi:cx="-276.7818"
           sodipodi:cy="-226.99602"
           sodipodi:rx="58.588848"
           sodipodi:ry="55.053314"
           d="M -218.19295,-226.99602 A 58.588848,55.053314 0 1 1 -335.37065,-226.99602 A 58.588848,55.053314 0 1 1 -218.19295,-226.99602 z"
           transform="translate(3.2103593,-12)" />
        <path
           sodipodi:type="spiral"
           style="fill:none;fill-rule:evenodd;stroke:#000000;stroke-width:5;stroke-linecap:butt;stroke-linejoin:miter;stroke-miterlimit:4;stroke-dasharray:none;stroke-opacity:1"
           id="path4378"
           sodipodi:cx="-423.25391"
           sodipodi:cy="-329.52649"
           sodipodi:expansion="3"
           sodipodi:revolution="3"
           sodipodi:radius="33.089241"
           sodipodi:argument="-18.303902"
           sodipodi:t0="0.6377188"
           d="M -414.67218,-329.52649 C -413.22615,-323.73238 -417.74745,-318.33719 -423.2539,-317.12177 C -431.4344,-315.31612 -438.93013,-321.71479 -440.47574,-329.52649 C -442.68076,-340.67087 -433.93892,-350.7588 -423.25391,-352.67447 C -408.50554,-355.31864 -395.28144,-343.71548 -392.95587,-329.5265 C -392.00944,-323.75202 -392.75991,-317.76308 -394.96962,-312.35392"
           transform="translate(78.771593,35.355339)" />
        <path
           sodipodi:type="spiral"
           style="fill:none;fill-rule:evenodd;stroke:#000000;stroke-width:5;stroke-linecap:butt;stroke-linejoin:miter;stroke-miterlimit:4;stroke-dasharray:none;stroke-opacity:1"
           id="path4380"
           sodipodi:cx="-423.25391"
           sodipodi:cy="-329.52649"
           sodipodi:expansion="3"
           sodipodi:revolution="3"
           sodipodi:radius="33.089241"
           sodipodi:argument="-18.303902"
           sodipodi:t0="0.6377188"
           d="M -414.67218,-329.52649 C -413.22615,-323.73238 -417.74745,-318.33719 -423.2539,-317.12177 C -431.4344,-315.31612 -438.93013,-321.71479 -440.47574,-329.52649 C -442.68076,-340.67087 -433.93892,-350.7588 -423.25391,-352.67447 C -408.50554,-355.31864 -395.28144,-343.71548 -392.95587,-329.5265 C -392.00944,-323.75202 -392.75991,-317.76308 -394.96962,-312.35392"
           transform="matrix(-1,0,0,1,-626.7781,35.355339)" />
        <path
           style="opacity:1;fill:#000000;fill-opacity:1;stroke:none;stroke-width:5;stroke-miterlimit:4;stroke-dasharray:none;stroke-dashoffset:0;stroke-opacity:1"
           d="M -326.85714,-155.3521 C -290.85714,-151.2914 -254.85714,-151.80086 -218.85714,-155.3521 L -210.85714,-137.263 L -208.85714,-126.62236 C -252.19048,-122.35311 -295.52381,-122.32021 -338.85715,-126.62236 C -338.85715,-126.62236 -340.85715,-113.85358 -340.85715,-126.62236 C -340.85715,-139.39113 -334.85715,-139.39113 -334.85715,-139.39113 L -326.85714,-155.3521 z"
           id="path4382"
           sodipodi:nodetypes="cccccscc" />
        <path
           style="opacity:1;fill:#000000;fill-opacity:1;stroke:none;stroke-width:5;stroke-miterlimit:4;stroke-dasharray:none;stroke-dashoffset:0;stroke-opacity:1"
           d="M -343.92856,-98.240571 C -298.16419,-94.631382 -251.59662,-94.234994 -203.92856,-98.240571 L -209.92856,-80.151471 L -207.92856,-69.510831 C -251.7576,-65.049466 -295.05157,-65.403798 -337.92857,-69.510831 C -337.92857,-69.510831 -339.92857,-56.742051 -339.92857,-69.510831 C -339.92857,-82.279601 -339.92857,-82.279601 -339.92857,-82.279601 L -343.92856,-98.240571 z"
           id="path4384"
           sodipodi:nodetypes="cccccscc" />
        <path
           style="opacity:1;fill:#000000;fill-opacity:1;stroke:none;stroke-width:5;stroke-miterlimit:4;stroke-dasharray:none;stroke-dashoffset:0;stroke-opacity:1"
           d="M -317.92857,-41.257817 C -289,-36.816056 -260.07143,-37.130533 -231.14286,-41.257817 L -232.42857,-33.53681 L -250.07143,-27.181884 L -273.64287,-11.253313 C -270.1369,-11.350988 -304.35626,-30.372048 -302.50001,-26.022083 L -317.92857,-41.257817 z"
           id="path4386"
           sodipodi:nodetypes="ccccccc" />
        <path
           sodipodi:type="arc"
           style="opacity:1;fill:#000000;fill-opacity:1;stroke:none;stroke-width:5;stroke-miterlimit:4;stroke-dasharray:none;stroke-dashoffset:0;stroke-opacity:1"
           id="path4388"
           sodipodi:cx="-297.14285"
           sodipodi:cy="-237.81639"
           sodipodi:rx="8.9285717"
           sodipodi:ry="10.178572"
           d="M -288.21428,-237.81639 A 8.9285717,10.178572 0 1 1 -306.07142,-237.81639 A 8.9285717,10.178572 0 1 1 -288.21428,-237.81639 z"
           transform="matrix(1.12,0,0,0.9824561,39.228555,-5.3518534)" />
        <path
           sodipodi:type="arc"
           style="opacity:1;fill:#000000;fill-opacity:1;stroke:none;stroke-width:5;stroke-miterlimit:4;stroke-dasharray:none;stroke-dashoffset:0;stroke-opacity:1"
           id="path4390"
           sodipodi:cx="-297.14285"
           sodipodi:cy="-237.81639"
           sodipodi:rx="8.9285717"
           sodipodi:ry="10.178572"
           d="M -288.21428,-237.81639 A 8.9285717,10.178572 0 1 1 -306.07142,-237.81639 A 8.9285717,10.178572 0 1 1 -288.21428,-237.81639 z"
           transform="matrix(1.12,0,0,0.9824561,79.228555,-5.3518534)" />
      </g>
      <path
         sodipodi:nodetypes="css"
         id="path4660"
         d="M 328.65328,571.15221 C 328.65328,571.15221 336.51233,586.08588 342.65328,586.08588 C 348.79423,586.08588 356.65328,571.15221 356.65328,571.15221"
         style="opacity:1;fill:#000000;fill-opacity:1;stroke:none;stroke-width:5;stroke-miterlimit:4;stroke-dasharray:none;stroke-dashoffset:0;stroke-opacity:1" />
    </g>
  </g>
</svg>
