<?xml version="1.0" encoding="UTF-8" standalone="no"?>
<svg width="458px" height="171px" viewBox="0 0 458 171" version="1.1" xmlns="http://www.w3.org/2000/svg" xmlns:xlink="http://www.w3.org/1999/xlink" xmlns:sketch="http://www.bohemiancoding.com/sketch/ns">
    <!-- Generator: Sketch 3.3.2 (12043) - http://www.bohemiancoding.com/sketch -->
    <title>Untitled</title>
    <desc>Created with Sketch.</desc>
    <defs></defs>
    <g id="Page-1" stroke="none" stroke-width="1" fill="none" fill-rule="evenodd" sketch:type="MSPage">
        <text id="beeKeep" sketch:type="MSTextLayer" font-family="Raleway" font-size="62" font-weight="420" fill="#383838">
            <tspan x="89.3552364" y="81.8298778">beeKeep</tspan>
        </text>
        <g id="Group-Copy" sketch:type="MSLayerGroup" transform="translate(399.262131, 86.646385) scale(-1, 1) translate(-399.262131, -86.646385) translate(341.262131, 2.646385)" fill="#DBB323">
            <polygon id="Polygon-1-Copy-29" sketch:type="MSShapeGroup" transform="translate(48.154347, 103.456985) scale(-1, 1) translate(-48.154347, -103.456985) " points="48.1543472 79.7169841 68.7137911 91.5869846 68.7137911 115.326986 48.1543472 127.196986 27.5949033 115.326986 27.5949033 91.5869846 "></polygon>
            <polygon id="Polygon-1-Copy-15" sketch:type="MSShapeGroup" transform="translate(24.414346, 63.325079) scale(-1, 1) translate(-24.414346, -63.325079) " points="24.4143463 39.5850778 44.9737902 51.4550783 44.9737902 75.1950792 24.4143463 87.0650797 3.85490243 75.1950792 3.85490243 51.4550783 "></polygon>
            <polygon id="Polygon-1-Copy-16" sketch:type="MSShapeGroup" transform="translate(71.329110, 63.325079) scale(-1, 1) translate(-71.329110, -63.325079) " points="71.32911 39.5850778 91.8885539 51.4550783 91.8885539 75.1950792 71.32911 87.0650797 50.7696661 75.1950792 50.7696661 51.4550783 "></polygon>
            <polygon id="Polygon-1-Copy-17" sketch:type="MSShapeGroup" transform="translate(48.154347, 103.456985) scale(-1, 1) translate(-48.154347, -103.456985) " points="48.1543472 79.7169841 68.7137911 91.5869846 68.7137911 115.326986 48.1543472 127.196986 27.5949033 115.326986 27.5949033 91.5869846 "></polygon>
            <polygon id="Polygon-1-Copy-18" sketch:type="MSShapeGroup" transform="translate(24.414346, 63.325079) scale(-1, 1) translate(-24.414346, -63.325079) " points="24.4143463 39.5850778 44.9737902 51.4550783 44.9737902 75.1950792 24.4143463 87.0650797 3.85490243 75.1950792 3.85490243 51.4550783 "></polygon>
            <polygon id="Polygon-1-Copy-19" sketch:type="MSShapeGroup" transform="translate(71.329110, 63.325079) scale(-1, 1) translate(-71.329110, -63.325079) " points="71.32911 39.5850778 91.8885539 51.4550783 91.8885539 75.1950792 71.32911 87.0650797 50.7696661 75.1950792 50.7696661 51.4550783 "></polygon>
            <polygon id="Polygon-1-Copy-20" sketch:type="MSShapeGroup" transform="translate(48.154347, 103.456985) scale(-1, 1) translate(-48.154347, -103.456985) " points="48.1543472 79.7169841 68.7137911 91.5869846 68.7137911 115.326986 48.1543472 127.196986 27.5949033 115.326986 27.5949033 91.5869846 "></polygon>
            <polygon id="Polygon-1-Copy-21" sketch:type="MSShapeGroup" transform="translate(24.414346, 63.325079) scale(-1, 1) translate(-24.414346, -63.325079) " points="24.4143463 39.5850778 44.9737902 51.4550783 44.9737902 75.1950792 24.4143463 87.0650797 3.85490243 75.1950792 3.85490243 51.4550783 "></polygon>
            <polygon id="Polygon-1-Copy-22" sketch:type="MSShapeGroup" transform="translate(71.329110, 63.325079) scale(-1, 1) translate(-71.329110, -63.325079) " points="71.32911 39.5850778 91.8885539 51.4550783 91.8885539 75.1950792 71.32911 87.0650797 50.7696661 75.1950792 50.7696661 51.4550783 "></polygon>
            <polygon id="Polygon-1-Copy-30" sketch:type="MSShapeGroup" transform="translate(71.329110, 63.325079) scale(-1, 1) translate(-71.329110, -63.325079) " points="71.32911 39.5850778 91.8885539 51.4550783 91.8885539 75.1950792 71.32911 87.0650797 50.7696661 75.1950792 50.7696661 51.4550783 "></polygon>
            <polygon id="Polygon-1-Copy-31" sketch:type="MSShapeGroup" transform="translate(71.329110, 63.325079) scale(-1, 1) translate(-71.329110, -63.325079) " points="71.32911 39.5850778 91.8885539 51.4550783 91.8885539 75.1950792 71.32911 87.0650797 50.7696661 75.1950792 50.7696661 51.4550783 "></polygon>
            <polygon id="Polygon-1-Copy-28" sketch:type="MSShapeGroup" transform="translate(71.046491, 143.588891) scale(-1, 1) translate(-71.046491, -143.588891) " points="71.0464909 119.84889 91.6059348 131.718891 91.6059348 155.458892 71.0464909 167.328892 50.4870471 155.458892 50.4870471 131.718891 "></polygon>
            <polygon id="Polygon-1-Copy-33" sketch:type="MSShapeGroup" transform="translate(94.316728, 104.052934) scale(-1, 1) translate(-94.316728, -104.052934) " points="94.3167275 80.3129336 114.876171 92.182934 114.876171 115.922935 94.3167275 127.792935 73.7572837 115.922935 73.7572837 92.182934 "></polygon>
            <polygon id="Polygon-1-Copy-35" sketch:type="MSShapeGroup" transform="translate(95.069111, 24.163113) scale(-1, 1) translate(-95.069111, -24.163113) " points="95.0691109 0.42311195 115.628555 12.2931124 115.628555 36.0331133 95.0691109 47.9031138 74.509667 36.0331133 74.509667 12.2931124 "></polygon>
        </g>
        <text id="be-part-of-a-solutio" sketch:type="MSTextLayer" font-family="Raleway" font-size="20" font-weight="normal" fill="#383838">
            <tspan x="127.355236" y="115.829878">be part of a solution.</tspan>
        </text>
    </g>
</svg>