<?xml version="1.0" encoding="UTF-8" standalone="no"?>
<svg width="208px" height="233px" viewBox="0 0 208 233" version="1.1" xmlns="http://www.w3.org/2000/svg" xmlns:xlink="http://www.w3.org/1999/xlink" xmlns:sketch="http://www.bohemiancoding.com/sketch/ns">
    <!-- Generator: Sketch 3.3.2 (12043) - http://www.bohemiancoding.com/sketch -->
    <title>Untitled</title>
    <desc>Created with Sketch.</desc>
    <defs></defs>
    <g id="Page-1" stroke="none" stroke-width="1" fill="none" fill-rule="evenodd" sketch:type="MSPage">
        <g id="Group-Copy-4" sketch:type="MSLayerGroup" transform="translate(90.626221, 116.500000) scale(-1, -1) translate(-90.626221, -116.500000) translate(0.126221, 0.000000)" fill="#DBB323">
            <polygon id="Polygon-1-Copy-29" sketch:type="MSShapeGroup" transform="translate(106.598358, 116.266198) scale(-1, 1) translate(-106.598358, -116.266198) " points="106.598358 89.8423106 129.482116 103.054255 129.482116 129.478142 106.598358 142.690086 83.7146 129.478142 83.7146 103.054255 "></polygon>
            <polygon id="Polygon-1-Copy-15" sketch:type="MSShapeGroup" transform="translate(80.174470, 71.597245) scale(-1, 1) translate(-80.174470, -71.597245) " points="80.1744703 45.1733574 103.058228 58.3853013 103.058228 84.8091891 80.1744703 98.0211331 57.2907121 84.8091891 57.2907121 58.3853013 "></polygon>
            <polygon id="Polygon-1-Copy-16" sketch:type="MSShapeGroup" transform="translate(132.393106, 71.597245) scale(-1, 1) translate(-132.393106, -71.597245) " points="132.393106 45.1733574 155.276864 58.3853013 155.276864 84.8091891 132.393106 98.0211331 109.509348 84.8091891 109.509348 58.3853013 "></polygon>
            <polygon id="Polygon-1-Copy-17" sketch:type="MSShapeGroup" transform="translate(106.598358, 116.266198) scale(-1, 1) translate(-106.598358, -116.266198) " points="106.598358 89.8423106 129.482116 103.054255 129.482116 129.478142 106.598358 142.690086 83.7146 129.478142 83.7146 103.054255 "></polygon>
            <polygon id="Polygon-1-Copy-18" sketch:type="MSShapeGroup" transform="translate(80.174470, 71.597245) scale(-1, 1) translate(-80.174470, -71.597245) " points="80.1744703 45.1733574 103.058228 58.3853013 103.058228 84.8091891 80.1744703 98.0211331 57.2907121 84.8091891 57.2907121 58.3853013 "></polygon>
            <polygon id="Polygon-1-Copy-19" sketch:type="MSShapeGroup" transform="translate(132.393106, 71.597245) scale(-1, 1) translate(-132.393106, -71.597245) " points="132.393106 45.1733574 155.276864 58.3853013 155.276864 84.8091891 132.393106 98.0211331 109.509348 84.8091891 109.509348 58.3853013 "></polygon>
            <polygon id="Polygon-1-Copy-20" sketch:type="MSShapeGroup" transform="translate(106.598358, 116.266198) scale(-1, 1) translate(-106.598358, -116.266198) " points="106.598358 89.8423106 129.482116 103.054255 129.482116 129.478142 106.598358 142.690086 83.7146 129.478142 83.7146 103.054255 "></polygon>
            <polygon id="Polygon-1-Copy-21" sketch:type="MSShapeGroup" transform="translate(80.174470, 71.597245) scale(-1, 1) translate(-80.174470, -71.597245) " points="80.1744703 45.1733574 103.058228 58.3853013 103.058228 84.8091891 80.1744703 98.0211331 57.2907121 84.8091891 57.2907121 58.3853013 "></polygon>
            <polygon id="Polygon-1-Copy-40" sketch:type="MSShapeGroup" transform="translate(54.379723, 26.894834) scale(-1, 1) translate(-54.379723, -26.894834) " points="54.3797226 0.470946178 77.2634807 13.6828901 77.2634807 40.106778 54.3797226 53.3187219 31.4959644 40.106778 31.4959644 13.6828901 "></polygon>
            <polygon id="Polygon-1-Copy-22" sketch:type="MSShapeGroup" transform="translate(132.393106, 71.597245) scale(-1, 1) translate(-132.393106, -71.597245) " points="132.393106 45.1733574 155.276864 58.3853013 155.276864 84.8091891 132.393106 98.0211331 109.509348 84.8091891 109.509348 58.3853013 "></polygon>
            <polygon id="Polygon-1-Copy-30" sketch:type="MSShapeGroup" transform="translate(132.393106, 71.597245) scale(-1, 1) translate(-132.393106, -71.597245) " points="132.393106 45.1733574 155.276864 58.3853013 155.276864 84.8091891 132.393106 98.0211331 109.509348 84.8091891 109.509348 58.3853013 "></polygon>
            <polygon id="Polygon-1-Copy-31" sketch:type="MSShapeGroup" transform="translate(132.393106, 71.597245) scale(-1, 1) translate(-132.393106, -71.597245) " points="132.393106 45.1733574 155.276864 58.3853013 155.276864 84.8091891 132.393106 98.0211331 109.509348 84.8091891 109.509348 58.3853013 "></polygon>
            <polygon id="Polygon-1-Copy-23" sketch:type="MSShapeGroup" transform="translate(106.654648, 205.782927) scale(-1, 1) translate(-106.654648, -205.782927) " points="106.654648 179.35904 129.538406 192.570984 129.538406 218.994871 106.654648 232.206815 83.7708897 218.994871 83.7708897 192.570984 "></polygon>
            <polygon id="Polygon-1-Copy-25" sketch:type="MSShapeGroup" transform="translate(53.750582, 116.266198) scale(-1, 1) translate(-53.750582, -116.266198) " points="53.7505824 89.8423106 76.6343405 103.054255 76.6343405 129.478142 53.7505824 142.690086 30.8668243 129.478142 30.8668243 103.054255 "></polygon>
            <polygon id="Polygon-1-Copy-42" sketch:type="MSShapeGroup" transform="translate(27.012124, 71.597245) scale(-1, 1) translate(-27.012124, -71.597245) " points="27.0121245 45.1733574 49.8958826 58.3853013 49.8958826 84.8091891 27.0121245 98.0211331 4.12836632 84.8091891 4.12836632 58.3853013 "></polygon>
            <polygon id="Polygon-1-Copy-41" sketch:type="MSShapeGroup" transform="translate(27.012124, 160.935152) scale(-1, 1) translate(-27.012124, -160.935152) " points="27.0121245 134.511264 49.8958826 147.723208 49.8958826 174.147096 27.0121245 187.35904 4.12836632 174.147096 4.12836632 147.723208 "></polygon>
            <polygon id="Polygon-1-Copy-27" sketch:type="MSShapeGroup" transform="translate(79.859900, 160.935152) scale(-1, 1) translate(-79.859900, -160.935152) " points="79.8599002 134.511264 102.743658 147.723208 102.743658 174.147096 79.8599002 187.35904 56.976142 174.147096 56.976142 147.723208 "></polygon>
            <polygon id="Polygon-1-Copy-28" sketch:type="MSShapeGroup" transform="translate(132.078536, 160.935152) scale(-1, 1) translate(-132.078536, -160.935152) " points="132.078536 134.511264 154.962294 147.723208 154.962294 174.147096 132.078536 187.35904 109.194778 174.147096 109.194778 147.723208 "></polygon>
            <polygon id="Polygon-1-Copy-35" sketch:type="MSShapeGroup" transform="translate(157.979551, 26.894834) scale(-1, 1) translate(-157.979551, -26.894834) " points="157.979551 0.470946178 180.863309 13.6828901 180.863309 40.106778 157.979551 53.3187219 135.095793 40.106778 135.095793 13.6828901 "></polygon>
        </g>
        <polygon id="Polygon-1-Copy-38" fill="#DBB323" sketch:type="MSShapeGroup" transform="translate(181.126221, 116.500000) scale(-1, 1) translate(-181.126221, -116.500000) " points="181.126221 90.0761122 204.009979 103.288056 204.009979 129.711944 181.126221 142.923888 158.242463 129.711944 158.242463 103.288056 "></polygon>
    </g>
</svg>