<?xml version="1.0" encoding="UTF-8" standalone="no"?>
<svg width="212px" height="231px" viewBox="0 0 212 231" version="1.1" xmlns="http://www.w3.org/2000/svg" xmlns:xlink="http://www.w3.org/1999/xlink" xmlns:sketch="http://www.bohemiancoding.com/sketch/ns">
    <!-- Generator: Sketch 3.3.2 (12043) - http://www.bohemiancoding.com/sketch -->
    <title>Untitled</title>
    <desc>Created with Sketch.</desc>
    <defs></defs>
    <g id="Page-1" stroke="none" stroke-width="1" fill="none" fill-rule="evenodd" sketch:type="MSPage">
        <g id="Group-Copy-3" sketch:type="MSLayerGroup" transform="translate(106.317581, 137.500000) scale(-1, 1) translate(-106.317581, -137.500000) translate(0.817581, 44.000000)" fill="#DBB323">
            <polygon id="Polygon-1-Copy-29" sketch:type="MSShapeGroup" transform="translate(79.381193, 71.092841) scale(-1, 1) translate(-79.381193, -71.092841) " points="79.3811927 44.6689533 102.264951 57.8808972 102.264951 84.304785 79.3811927 97.516729 56.4974345 84.304785 56.4974345 57.8808972 "></polygon>
            <polygon id="Polygon-1-Copy-15" sketch:type="MSShapeGroup" transform="translate(105.805081, 26.423888) scale(-1, 1) translate(-105.805081, -26.423888) " points="105.805081 0 128.688839 13.2119439 128.688839 39.6358318 105.805081 52.8477757 82.9213224 39.6358318 82.9213224 13.2119439 "></polygon>
            <polygon id="Polygon-1-Copy-16" sketch:type="MSShapeGroup" transform="translate(53.586445, 26.423888) scale(-1, 1) translate(-53.586445, -26.423888) " points="53.586445 0 76.4702031 13.2119439 76.4702031 39.6358318 53.586445 52.8477757 30.7026869 39.6358318 30.7026869 13.2119439 "></polygon>
            <polygon id="Polygon-1-Copy-17" sketch:type="MSShapeGroup" transform="translate(79.381193, 71.092841) scale(-1, 1) translate(-79.381193, -71.092841) " points="79.3811927 44.6689533 102.264951 57.8808972 102.264951 84.304785 79.3811927 97.516729 56.4974345 84.304785 56.4974345 57.8808972 "></polygon>
            <polygon id="Polygon-1-Copy-18" sketch:type="MSShapeGroup" transform="translate(105.805081, 26.423888) scale(-1, 1) translate(-105.805081, -26.423888) " points="105.805081 0 128.688839 13.2119439 128.688839 39.6358318 105.805081 52.8477757 82.9213224 39.6358318 82.9213224 13.2119439 "></polygon>
            <polygon id="Polygon-1-Copy-19" sketch:type="MSShapeGroup" transform="translate(53.586445, 26.423888) scale(-1, 1) translate(-53.586445, -26.423888) " points="53.586445 0 76.4702031 13.2119439 76.4702031 39.6358318 53.586445 52.8477757 30.7026869 39.6358318 30.7026869 13.2119439 "></polygon>
            <polygon id="Polygon-1-Copy-20" sketch:type="MSShapeGroup" transform="translate(79.381193, 71.092841) scale(-1, 1) translate(-79.381193, -71.092841) " points="79.3811927 44.6689533 102.264951 57.8808972 102.264951 84.304785 79.3811927 97.516729 56.4974345 84.304785 56.4974345 57.8808972 "></polygon>
            <polygon id="Polygon-1-Copy-39" sketch:type="MSShapeGroup" transform="translate(26.533417, 71.092841) scale(-1, 1) translate(-26.533417, -71.092841) " points="26.533417 44.6689533 49.4171751 57.8808972 49.4171751 84.304785 26.533417 97.516729 3.64965882 84.304785 3.64965882 57.8808972 "></polygon>
            <polygon id="Polygon-1-Copy-21" sketch:type="MSShapeGroup" transform="translate(105.805081, 26.423888) scale(-1, 1) translate(-105.805081, -26.423888) " points="105.805081 0 128.688839 13.2119439 128.688839 39.6358318 105.805081 52.8477757 82.9213224 39.6358318 82.9213224 13.2119439 "></polygon>
            <polygon id="Polygon-1-Copy-44" sketch:type="MSShapeGroup" transform="translate(158.023716, 26.423888) scale(-1, 1) translate(-158.023716, -26.423888) " points="158.023716 0 180.907474 13.2119439 180.907474 39.6358318 158.023716 52.8477757 135.139958 39.6358318 135.139958 13.2119439 "></polygon>
            <polygon id="Polygon-1-Copy-22" sketch:type="MSShapeGroup" transform="translate(53.586445, 26.423888) scale(-1, 1) translate(-53.586445, -26.423888) " points="53.586445 0 76.4702031 13.2119439 76.4702031 39.6358318 53.586445 52.8477757 30.7026869 39.6358318 30.7026869 13.2119439 "></polygon>
            <polygon id="Polygon-1-Copy-30" sketch:type="MSShapeGroup" transform="translate(53.586445, 26.423888) scale(-1, 1) translate(-53.586445, -26.423888) " points="53.586445 0 76.4702031 13.2119439 76.4702031 39.6358318 53.586445 52.8477757 30.7026869 39.6358318 30.7026869 13.2119439 "></polygon>
            <polygon id="Polygon-1-Copy-31" sketch:type="MSShapeGroup" transform="translate(53.586445, 26.423888) scale(-1, 1) translate(-53.586445, -26.423888) " points="53.586445 0 76.4702031 13.2119439 76.4702031 39.6358318 53.586445 52.8477757 30.7026869 39.6358318 30.7026869 13.2119439 "></polygon>
            <polygon id="Polygon-1-Copy-23" sketch:type="MSShapeGroup" transform="translate(158.023716, 115.761794) scale(-1, 1) translate(-158.023716, -115.761794) " points="158.023716 89.3379065 180.907474 102.54985 180.907474 128.973738 158.023716 142.185682 135.139958 128.973738 135.139958 102.54985 "></polygon>
            <polygon id="Polygon-1-Copy-24" sketch:type="MSShapeGroup" transform="translate(184.447604, 71.092841) scale(-1, 1) translate(-184.447604, -71.092841) " points="184.447604 44.6689533 207.331362 57.8808972 207.331362 84.304785 184.447604 97.516729 161.563846 84.304785 161.563846 57.8808972 "></polygon>
            <polygon id="Polygon-1-Copy-25" sketch:type="MSShapeGroup" transform="translate(132.228968, 71.092841) scale(-1, 1) translate(-132.228968, -71.092841) " points="132.228968 44.6689533 155.112726 57.8808972 155.112726 84.304785 132.228968 97.516729 109.34521 84.304785 109.34521 57.8808972 "></polygon>
            <polygon id="Polygon-1-Copy-26" sketch:type="MSShapeGroup" transform="translate(79.695763, 160.430748) scale(-1, 1) translate(-79.695763, -160.430748) " points="79.6957628 134.00686 102.579521 147.218804 102.579521 173.642692 79.6957628 186.854635 56.8120046 173.642692 56.8120046 147.218804 "></polygon>
            <polygon id="Polygon-1-Copy-27" sketch:type="MSShapeGroup" transform="translate(106.119651, 115.761794) scale(-1, 1) translate(-106.119651, -115.761794) " points="106.119651 89.3379065 129.003409 102.54985 129.003409 128.973738 106.119651 142.185682 83.2358925 128.973738 83.2358925 102.54985 "></polygon>
        </g>
        <polygon id="Polygon-1-Copy-37" fill="#DBB323" sketch:type="MSShapeGroup" transform="translate(184.817581, 26.576112) scale(-1, 1) translate(-184.817581, -26.576112) " points="184.817581 0.152224304 207.701339 13.3641682 207.701339 39.7880561 184.817581 53 161.933822 39.7880561 161.933822 13.3641682 "></polygon>
        <polygon id="Polygon-1-Copy-43" fill="#DBB323" sketch:type="MSShapeGroup" transform="translate(132.741468, 26.576112) scale(-1, 1) translate(-132.741468, -26.576112) " points="132.741468 0.152224304 155.625226 13.3641682 155.625226 39.7880561 132.741468 53 109.85771 39.7880561 109.85771 13.3641682 "></polygon>
    </g>
</svg>