<?xml version="1.0" encoding="UTF-8" standalone="no"?>
<svg width="730px" height="135px" viewBox="0 0 730 135" version="1.1" xmlns="http://www.w3.org/2000/svg" xmlns:xlink="http://www.w3.org/1999/xlink" xmlns:sketch="http://www.bohemiancoding.com/sketch/ns">
    <!-- Generator: Sketch 3.3.2 (12043) - http://www.bohemiancoding.com/sketch -->
    <title>Untitled</title>
    <desc>Created with Sketch.</desc>
    <defs></defs>
    <g id="Page-1" stroke="none" stroke-width="1" fill="none" fill-rule="evenodd" sketch:type="MSPage">
        <path d="M30.7416201,90 L0.741620149,45 L127.74162,45 L127.74162,135 L0.741620149,135 L30.7416201,90 Z" id="Rectangle-4" fill="#E5C537" sketch:type="MSShapeGroup"></path>
        <path d="M632.20102,90 L602.20102,45 L729.20102,45 L729.20102,135 L602.20102,135 L632.20102,90 Z" id="Rectangle-4-Copy" fill="#E5C537" sketch:type="MSShapeGroup" transform="translate(665.701020, 90.000000) scale(-1, 1) translate(-665.701020, -90.000000) "></path>
        <path d="M127.74162,44 L127.74162,135 L76.3047439,89.5 L127.74162,44 Z" id="Triangle-1" fill="#DBB323" sketch:type="MSShapeGroup"></path>
        <path d="M653.637896,44 L653.637896,135 L602.20102,89.5 L653.637896,44 Z" id="Triangle-1-Copy" fill="#DBB323" sketch:type="MSShapeGroup" transform="translate(627.919458, 89.500000) scale(-1, 1) translate(-627.919458, -89.500000) "></path>
        <path d="M236.51172,66.5 L497.00504,66.5" id="Path-3" stroke="#383838" stroke-width="3" sketch:type="MSShapeGroup"></path>
        <path d="M254.052282,72.5 L478.986652,72.5" id="Path-3-Copy" stroke="#383838" stroke-width="3" sketch:type="MSShapeGroup"></path>
        <rect id="Rectangle-3" fill="#E3D26F" sketch:type="MSShapeGroup" x="76.2583799" y="0" width="579" height="90"></rect>
        <text id="SWARM-MAP" sketch:type="MSTextLayer" font-family="Raleway" font-size="48" font-weight="420" fill="#383838">
            <tspan x="213" y="60.872">SWARM MAP</tspan>
        </text>
        <path d="M230.579755,73.1885878 L498.561248,73.1885878" id="Path-5" stroke="#383838" stroke-width="2" sketch:type="MSShapeGroup"></path>
        <path d="M221.009766,69.0168889 L507.94906,69.0168889" id="Path-5-Copy-2" stroke="#383838" stroke-width="2" sketch:type="MSShapeGroup"></path>
    </g>
</svg>