<?xml version="1.0" encoding="UTF-8" standalone="no"?>
<svg width="741px" height="259px" viewBox="0 0 741 259" version="1.1" xmlns="http://www.w3.org/2000/svg" xmlns:xlink="http://www.w3.org/1999/xlink" xmlns:sketch="http://www.bohemiancoding.com/sketch/ns">
    <!-- Generator: Sketch 3.3.2 (12043) - http://www.bohemiancoding.com/sketch -->
    <title>Untitled</title>
    <desc>Created with Sketch.</desc>
    <defs></defs>
    <g id="Page-1" stroke="none" stroke-width="1" fill="none" fill-rule="evenodd" sketch:type="MSPage">
        <g id="Group" sketch:type="MSLayerGroup" transform="translate(92.000000, 150.675862) scale(-1, 1) translate(-92.000000, -150.675862) translate(0.000000, 57.175862)" fill="#DBB323">
            <polygon id="Polygon-1-Copy-29" sketch:type="MSShapeGroup" transform="translate(52.381193, 71.092841) scale(-1, 1) translate(-52.381193, -71.092841) " points="52.3811927 44.6689533 75.2649508 57.8808972 75.2649508 84.304785 52.3811927 97.516729 29.4974345 84.304785 29.4974345 57.8808972 "></polygon>
            <polygon id="Polygon-1-Copy-15" sketch:type="MSShapeGroup" transform="translate(78.805081, 26.423888) scale(-1, 1) translate(-78.805081, -26.423888) " points="78.8050805 0 101.688839 13.2119439 101.688839 39.6358318 78.8050805 52.8477757 55.9213224 39.6358318 55.9213224 13.2119439 "></polygon>
            <polygon id="Polygon-1-Copy-16" sketch:type="MSShapeGroup" transform="translate(26.586445, 26.423888) scale(-1, 1) translate(-26.586445, -26.423888) " points="26.586445 0 49.4702031 13.2119439 49.4702031 39.6358318 26.586445 52.8477757 3.70268685 39.6358318 3.70268685 13.2119439 "></polygon>
            <polygon id="Polygon-1-Copy-17" sketch:type="MSShapeGroup" transform="translate(52.381193, 71.092841) scale(-1, 1) translate(-52.381193, -71.092841) " points="52.3811927 44.6689533 75.2649508 57.8808972 75.2649508 84.304785 52.3811927 97.516729 29.4974345 84.304785 29.4974345 57.8808972 "></polygon>
            <polygon id="Polygon-1-Copy-18" sketch:type="MSShapeGroup" transform="translate(78.805081, 26.423888) scale(-1, 1) translate(-78.805081, -26.423888) " points="78.8050805 0 101.688839 13.2119439 101.688839 39.6358318 78.8050805 52.8477757 55.9213224 39.6358318 55.9213224 13.2119439 "></polygon>
            <polygon id="Polygon-1-Copy-19" sketch:type="MSShapeGroup" transform="translate(26.586445, 26.423888) scale(-1, 1) translate(-26.586445, -26.423888) " points="26.586445 0 49.4702031 13.2119439 49.4702031 39.6358318 26.586445 52.8477757 3.70268685 39.6358318 3.70268685 13.2119439 "></polygon>
            <polygon id="Polygon-1-Copy-20" sketch:type="MSShapeGroup" transform="translate(52.381193, 71.092841) scale(-1, 1) translate(-52.381193, -71.092841) " points="52.3811927 44.6689533 75.2649508 57.8808972 75.2649508 84.304785 52.3811927 97.516729 29.4974345 84.304785 29.4974345 57.8808972 "></polygon>
            <polygon id="Polygon-1-Copy-21" sketch:type="MSShapeGroup" transform="translate(78.805081, 26.423888) scale(-1, 1) translate(-78.805081, -26.423888) " points="78.8050805 0 101.688839 13.2119439 101.688839 39.6358318 78.8050805 52.8477757 55.9213224 39.6358318 55.9213224 13.2119439 "></polygon>
            <polygon id="Polygon-1-Copy-22" sketch:type="MSShapeGroup" transform="translate(26.586445, 26.423888) scale(-1, 1) translate(-26.586445, -26.423888) " points="26.586445 0 49.4702031 13.2119439 49.4702031 39.6358318 26.586445 52.8477757 3.70268685 39.6358318 3.70268685 13.2119439 "></polygon>
            <polygon id="Polygon-1-Copy-30" sketch:type="MSShapeGroup" transform="translate(26.586445, 26.423888) scale(-1, 1) translate(-26.586445, -26.423888) " points="26.586445 0 49.4702031 13.2119439 49.4702031 39.6358318 26.586445 52.8477757 3.70268685 39.6358318 3.70268685 13.2119439 "></polygon>
            <polygon id="Polygon-1-Copy-31" sketch:type="MSShapeGroup" transform="translate(26.586445, 26.423888) scale(-1, 1) translate(-26.586445, -26.423888) " points="26.586445 0 49.4702031 13.2119439 49.4702031 39.6358318 26.586445 52.8477757 3.70268685 39.6358318 3.70268685 13.2119439 "></polygon>
            <polygon id="Polygon-1-Copy-23" sketch:type="MSShapeGroup" transform="translate(131.023716, 115.761794) scale(-1, 1) translate(-131.023716, -115.761794) " points="131.023716 89.3379065 153.907474 102.54985 153.907474 128.973738 131.023716 142.185682 108.139958 128.973738 108.139958 102.54985 "></polygon>
            <polygon id="Polygon-1-Copy-24" sketch:type="MSShapeGroup" transform="translate(157.447604, 71.092841) scale(-1, 1) translate(-157.447604, -71.092841) " points="157.447604 44.6689533 180.331362 57.8808972 180.331362 84.304785 157.447604 97.516729 134.563846 84.304785 134.563846 57.8808972 "></polygon>
            <polygon id="Polygon-1-Copy-25" sketch:type="MSShapeGroup" transform="translate(105.228968, 71.092841) scale(-1, 1) translate(-105.228968, -71.092841) " points="105.228968 44.6689533 128.112726 57.8808972 128.112726 84.304785 105.228968 97.516729 82.3452102 84.304785 82.3452102 57.8808972 "></polygon>
            <polygon id="Polygon-1-Copy-26" sketch:type="MSShapeGroup" transform="translate(52.695763, 160.430748) scale(-1, 1) translate(-52.695763, -160.430748) " points="52.6957628 134.00686 75.5795209 147.218804 75.5795209 173.642692 52.6957628 186.854635 29.8120046 173.642692 29.8120046 147.218804 "></polygon>
            <polygon id="Polygon-1-Copy-27" sketch:type="MSShapeGroup" transform="translate(79.119651, 115.761794) scale(-1, 1) translate(-79.119651, -115.761794) " points="79.1196506 89.3379065 102.003409 102.54985 102.003409 128.973738 79.1196506 142.185682 56.2358925 128.973738 56.2358925 102.54985 "></polygon>
            <polygon id="Polygon-1-Copy-28" sketch:type="MSShapeGroup" transform="translate(26.901015, 115.761794) scale(-1, 1) translate(-26.901015, -115.761794) " points="26.9010151 89.3379065 49.7847732 102.54985 49.7847732 128.973738 26.9010151 142.185682 4.01725695 128.973738 4.01725695 102.54985 "></polygon>
        </g>
        <circle id="Oval-10" fill="#DBB323" sketch:type="MSShapeGroup" cx="370" cy="128" r="128"></circle>
        <g id="Rectangle-9-Copy-2-+-Rectangle-9-Copy-3-+-Rectangle-9-Copy-4-+-Rectangle-9-Copy-5-Mask" sketch:type="MSLayerGroup" transform="translate(336.859289, 101.508139)">
            <path d="M51.981447,0.716773807 C58.2139469,9.38073264 61.6873813,22.0248066 61.6873813,33.7307231 C61.6873813,54.1604742 47.5175894,77.4477575 33.7456841,77.4477575 C19.9737788,77.4477575 4.74679237,54.160475 4.74679237,33.7307238 C4.74679237,21.793676 8.71967544,8.88105699 15.4861358,0.208261589 C18.9669166,6.51276766 25.8975243,10.8104603 33.8791868,10.8104603 C41.6443642,10.8104603 48.4147288,6.74273693 51.981447,0.716773807 Z" id="Mask" fill="#000000" sketch:type="MSShapeGroup"></path>
            <rect id="Rectangle-9-Copy-7" fill="#DBB323" sketch:type="MSShapeGroup" x="0.50340539" y="11.0708434" width="65.4273629" height="10.1790797"></rect>
            <rect id="Rectangle-9-Copy-5" fill="#DBB323" sketch:type="MSShapeGroup" x="0.50340539" y="56.4060962" width="65.4273629" height="10.1790797"></rect>
            <rect id="Rectangle-9-Copy-6" fill="#DBB323" sketch:type="MSShapeGroup" x="0.50340539" y="33.7384698" width="65.4273629" height="10.1790797"></rect>
        </g>
        <path d="M344.921528,121.938816 C359.364668,107.495677 370.639816,86.0391505 371.750824,81.5951094 C375.702216,65.7895047 353.852441,79.6782276 337.144454,89.7173991 C320.436467,99.7565706 304.440403,109.306414 310.953471,120.145979 C317.466538,130.985543 332.509194,134.351149 344.921528,121.938816 Z" id="Oval-7" fill="#9B9B9B" sketch:type="MSShapeGroup"></path>
        <path d="M396.452322,123.469285 C382.009182,109.026146 370.734033,87.5696193 369.623026,83.1255782 C365.671634,67.3199735 387.521409,81.2086964 404.229396,91.2478679 C420.937383,101.287039 436.933447,110.836883 430.420379,121.676447 C423.907312,132.516012 408.864656,135.881618 396.452322,123.469285 Z" id="Oval-7-Copy" fill="#9B9B9B" sketch:type="MSShapeGroup"></path>
        <path d="M314.069838,112.47941 C338.036881,105.606972 362.772174,89.3721374 366.588242,85.2850867 C380.16041,70.7491481 348.614016,72.6465116 324.835206,73.4768859 C301.056397,74.3072603 278.327229,75.0365283 278.865947,90.4633982 C279.404665,105.890268 293.472729,118.385535 314.069838,112.47941 Z" id="Oval-7-Copy-2" fill="#9B9B9B" sketch:type="MSShapeGroup"></path>
        <path d="M428.004605,110.948941 C404.037563,104.076503 379.30227,87.8416686 375.486201,83.7546179 C361.914034,69.2186793 393.460428,71.1160428 417.239237,71.9464171 C441.018046,72.7767915 463.747215,73.5060595 463.208496,88.9329294 C462.669778,104.359799 448.601715,116.855066 428.004605,110.948941 Z" id="Oval-7-Copy-3" fill="#9B9B9B" sketch:type="MSShapeGroup"></path>
        <ellipse id="Oval-9" fill="#4A4A4A" sketch:type="MSShapeGroup" cx="369.859289" cy="71.3815092" rx="15.6172918" ry="14.0602826"></ellipse>
        <circle id="Oval-6-Copy-2" fill="#000000" sketch:type="MSShapeGroup" cx="369.859289" cy="93.0802447" r="21.6987355"></circle>
        <path d="M181.18572,233.693819 L164.186293,208.826643 L236.150536,208.826643 L236.150536,258.560996 L164.186293,258.560996 L181.18572,233.693819 Z" id="Rectangle-4-Copy-5" fill="#E5C537" sketch:type="MSShapeGroup"></path>
        <path d="M559.912045,233.173357 L576.911472,208.306181 L504.947229,208.306181 L504.947229,258.040534 L576.911472,258.040534 L559.912045,233.173357 Z" id="Rectangle-4-Copy-4" fill="#E5C537" sketch:type="MSShapeGroup"></path>
        <path d="M236.037179,208.274039 L236.037179,258.560996 L206.890598,233.417517 L236.037179,208.274039 Z" id="Triangle-1-Copy-4" fill="#DBB323" sketch:type="MSShapeGroup"></path>
        <path d="M504.947229,207.753577 L504.947229,258.040534 L534.09381,232.897055 L504.947229,207.753577 Z" id="Triangle-1-Copy-5" fill="#DBB323" sketch:type="MSShapeGroup"></path>
        <rect id="Rectangle-3-Copy-2" fill="#E3D26F" sketch:type="MSShapeGroup" x="206.890598" y="183.439004" width="328.088953" height="49.7343531"></rect>
        <text id="Report-a-Swarm" sketch:type="MSTextLayer" font-family="Raleway" font-size="24" font-weight="420" fill="#383838">
            <tspan x="281.856558" y="215.198643">Report a Swarm</tspan>
        </text>
        <polygon id="Polygon-1-Copy-32" fill="#DBB323" sketch:type="MSShapeGroup" transform="translate(183.000000, 128.932027) scale(-1, 1) translate(-183.000000, -128.932027) " points="183 102.508139 205.883758 115.720083 205.883758 142.143971 183 155.355915 160.116242 142.143971 160.116242 115.720083 "></polygon>
        <polygon id="Polygon-1-Copy-34" fill="#DBB323" sketch:type="MSShapeGroup" transform="translate(184.000000, 38.423888) scale(-1, 1) translate(-184.000000, -38.423888) " points="184 12 206.883758 25.2119439 206.883758 51.6358318 184 64.8477757 161.116242 51.6358318 161.116242 25.2119439 "></polygon>
        <g id="Group" sketch:type="MSLayerGroup" transform="translate(638.000000, 128.500000) scale(-1, 1) translate(-638.000000, -128.500000) translate(535.000000, 12.000000)" fill="#DBB323">
            <polygon id="Polygon-1-Copy-29" sketch:type="MSShapeGroup" transform="translate(131.598358, 116.266198) scale(-1, 1) translate(-131.598358, -116.266198) " points="131.598358 89.8423106 154.482116 103.054255 154.482116 129.478142 131.598358 142.690086 108.7146 129.478142 108.7146 103.054255 "></polygon>
            <polygon id="Polygon-1-Copy-15" sketch:type="MSShapeGroup" transform="translate(105.174470, 71.597245) scale(-1, 1) translate(-105.174470, -71.597245) " points="105.17447 45.1733574 128.058228 58.3853013 128.058228 84.8091891 105.17447 98.0211331 82.2907121 84.8091891 82.2907121 58.3853013 "></polygon>
            <polygon id="Polygon-1-Copy-16" sketch:type="MSShapeGroup" transform="translate(157.393106, 71.597245) scale(-1, 1) translate(-157.393106, -71.597245) " points="157.393106 45.1733574 180.276864 58.3853013 180.276864 84.8091891 157.393106 98.0211331 134.509348 84.8091891 134.509348 58.3853013 "></polygon>
            <polygon id="Polygon-1-Copy-17" sketch:type="MSShapeGroup" transform="translate(131.598358, 116.266198) scale(-1, 1) translate(-131.598358, -116.266198) " points="131.598358 89.8423106 154.482116 103.054255 154.482116 129.478142 131.598358 142.690086 108.7146 129.478142 108.7146 103.054255 "></polygon>
            <polygon id="Polygon-1-Copy-18" sketch:type="MSShapeGroup" transform="translate(105.174470, 71.597245) scale(-1, 1) translate(-105.174470, -71.597245) " points="105.17447 45.1733574 128.058228 58.3853013 128.058228 84.8091891 105.17447 98.0211331 82.2907121 84.8091891 82.2907121 58.3853013 "></polygon>
            <polygon id="Polygon-1-Copy-19" sketch:type="MSShapeGroup" transform="translate(157.393106, 71.597245) scale(-1, 1) translate(-157.393106, -71.597245) " points="157.393106 45.1733574 180.276864 58.3853013 180.276864 84.8091891 157.393106 98.0211331 134.509348 84.8091891 134.509348 58.3853013 "></polygon>
            <polygon id="Polygon-1-Copy-20" sketch:type="MSShapeGroup" transform="translate(131.598358, 116.266198) scale(-1, 1) translate(-131.598358, -116.266198) " points="131.598358 89.8423106 154.482116 103.054255 154.482116 129.478142 131.598358 142.690086 108.7146 129.478142 108.7146 103.054255 "></polygon>
            <polygon id="Polygon-1-Copy-21" sketch:type="MSShapeGroup" transform="translate(105.174470, 71.597245) scale(-1, 1) translate(-105.174470, -71.597245) " points="105.17447 45.1733574 128.058228 58.3853013 128.058228 84.8091891 105.17447 98.0211331 82.2907121 84.8091891 82.2907121 58.3853013 "></polygon>
            <polygon id="Polygon-1-Copy-22" sketch:type="MSShapeGroup" transform="translate(157.393106, 71.597245) scale(-1, 1) translate(-157.393106, -71.597245) " points="157.393106 45.1733574 180.276864 58.3853013 180.276864 84.8091891 157.393106 98.0211331 134.509348 84.8091891 134.509348 58.3853013 "></polygon>
            <polygon id="Polygon-1-Copy-30" sketch:type="MSShapeGroup" transform="translate(157.393106, 71.597245) scale(-1, 1) translate(-157.393106, -71.597245) " points="157.393106 45.1733574 180.276864 58.3853013 180.276864 84.8091891 157.393106 98.0211331 134.509348 84.8091891 134.509348 58.3853013 "></polygon>
            <polygon id="Polygon-1-Copy-31" sketch:type="MSShapeGroup" transform="translate(157.393106, 71.597245) scale(-1, 1) translate(-157.393106, -71.597245) " points="157.393106 45.1733574 180.276864 58.3853013 180.276864 84.8091891 157.393106 98.0211331 134.509348 84.8091891 134.509348 58.3853013 "></polygon>
            <polygon id="Polygon-1-Copy-23" sketch:type="MSShapeGroup" transform="translate(52.955835, 160.935152) scale(-1, 1) translate(-52.955835, -160.935152) " points="52.9558347 134.511264 75.8395929 147.723208 75.8395929 174.147096 52.9558347 187.35904 30.0720766 174.147096 30.0720766 147.723208 "></polygon>
            <polygon id="Polygon-1-Copy-24" sketch:type="MSShapeGroup" transform="translate(26.531947, 116.266198) scale(-1, 1) translate(-26.531947, -116.266198) " points="26.5319469 89.8423106 49.415705 103.054255 49.415705 129.478142 26.5319469 142.690086 3.64818875 129.478142 3.64818875 103.054255 "></polygon>
            <polygon id="Polygon-1-Copy-25" sketch:type="MSShapeGroup" transform="translate(78.750582, 116.266198) scale(-1, 1) translate(-78.750582, -116.266198) " points="78.7505824 89.8423106 101.634341 103.054255 101.634341 129.478142 78.7505824 142.690086 55.8668243 129.478142 55.8668243 103.054255 "></polygon>
            <polygon id="Polygon-1-Copy-26" sketch:type="MSShapeGroup" transform="translate(131.283788, 205.604105) scale(-1, 1) translate(-131.283788, -205.604105) " points="131.283788 179.180217 154.167546 192.392161 154.167546 218.816049 131.283788 232.027993 108.40003 218.816049 108.40003 192.392161 "></polygon>
            <polygon id="Polygon-1-Copy-27" sketch:type="MSShapeGroup" transform="translate(104.859900, 160.935152) scale(-1, 1) translate(-104.859900, -160.935152) " points="104.8599 134.511264 127.743658 147.723208 127.743658 174.147096 104.8599 187.35904 81.976142 174.147096 81.976142 147.723208 "></polygon>
            <polygon id="Polygon-1-Copy-28" sketch:type="MSShapeGroup" transform="translate(157.078536, 160.935152) scale(-1, 1) translate(-157.078536, -160.935152) " points="157.078536 134.511264 179.962294 147.723208 179.962294 174.147096 157.078536 187.35904 134.194778 174.147096 134.194778 147.723208 "></polygon>
            <polygon id="Polygon-1-Copy-33" sketch:type="MSShapeGroup" transform="translate(182.979551, 116.929522) scale(-1, 1) translate(-182.979551, -116.929522) " points="182.979551 90.5056342 205.863309 103.717578 205.863309 130.141466 182.979551 143.35341 160.095793 130.141466 160.095793 103.717578 "></polygon>
            <polygon id="Polygon-1-Copy-35" sketch:type="MSShapeGroup" transform="translate(182.979551, 26.894834) scale(-1, 1) translate(-182.979551, -26.894834) " points="182.979551 0.470946178 205.863309 13.6828901 205.863309 40.106778 182.979551 53.3187219 160.095793 40.106778 160.095793 13.6828901 "></polygon>
        </g>
    </g>
</svg>